<?xml version="1.0" encoding="utf-8"?>
<!-- Generator: Adobe Illustrator 16.0.0, SVG Export Plug-In . SVG Version: 6.00 Build 0)  -->
<!DOCTYPE svg PUBLIC "-//W3C//DTD SVG 1.1//EN" "http://www.w3.org/Graphics/SVG/1.1/DTD/svg11.dtd">
<svg version="1.1" id="Layer_1" xmlns="http://www.w3.org/2000/svg" xmlns:xlink="http://www.w3.org/1999/xlink" x="0px" y="0px"
	 width="370px" height="372px" viewBox="0 0 370 372" enable-background="new 0 0 370 372" xml:space="preserve">
<g>
	<g>
		<path fill="#00843C" d="M67.45,67.45c-4.566,4.566-8.8,9.267-12.7,14.1C30.917,110.917,19,145.233,19,184.5
			c0,45.7,16.15,84.684,48.45,116.95c32.3,32.333,71.3,48.5,117,48.5c45.733,0,84.733-16.167,117-48.5
			c32.333-32.267,48.5-71.25,48.5-116.95c0-39.267-11.917-73.583-35.75-102.95c-3.967-4.833-8.218-9.533-12.75-14.1
			C269.184,35.15,230.184,19,184.45,19C138.75,19,99.75,35.15,67.45,67.45z M58.25,58.25C93.083,23.417,135.15,6,184.45,6
			c49.333,0,91.399,17.417,126.2,52.25c4.898,4.934,9.482,10,13.75,15.2c25.699,31.7,38.55,68.716,38.55,111.05
			c0,49.3-17.435,91.35-52.3,126.15c-34.801,34.865-76.867,52.3-126.2,52.3c-49.3,0-91.367-17.435-126.2-52.3
			C23.417,275.85,6,233.8,6,184.5c0-42.333,12.85-79.35,38.55-111.05C48.784,68.25,53.35,63.184,58.25,58.25z"/>
		<path fill="#3A3838" d="M67.45,67.45c32.3-32.3,71.3-48.45,117-48.45c45.733,0,84.733,16.15,117,48.45
			c4.532,4.566,8.783,9.267,12.75,14.1c23.833,29.367,35.75,63.684,35.75,102.95c0,45.7-16.167,84.684-48.5,116.95
			c-32.267,32.333-71.267,48.5-117,48.5c-45.7,0-84.7-16.167-117-48.5C35.15,269.184,19,230.2,19,184.5
			c0-39.267,11.917-73.583,35.75-102.95C58.65,76.717,62.884,72.017,67.45,67.45z"/>
		
			<path fill="none" stroke="#3A3838" stroke-width="7.05" stroke-linecap="round" stroke-linejoin="round" stroke-miterlimit="3" d="
			M58.25,58.25C93.083,23.417,135.15,6,184.45,6c49.333,0,91.399,17.417,126.2,52.25c4.898,4.934,9.482,10,13.75,15.2
			c25.699,31.7,38.55,68.716,38.55,111.05c0,49.3-17.435,91.35-52.3,126.15c-34.801,34.865-76.867,52.3-126.2,52.3
			c-49.3,0-91.367-17.435-126.2-52.3C23.417,275.85,6,233.8,6,184.5c0-42.333,12.85-79.35,38.55-111.05
			C48.784,68.25,53.35,63.184,58.25,58.25z"/>
	</g>
	<g>
		<path fill="none" stroke="#FFFFFF" stroke-linecap="round" stroke-linejoin="round" stroke-miterlimit="3" d="M142.05,297.95
			l49-46l-10,59 M191.05,251.95l-30,53 M211.05,234.95l62.9-10 M110.95,155.1c-4.967,23.566-14.283,40.183-27.95,49.85
			 M119.55,156.6l-8.5,63.35 M128.55,156.15l18.5,72.8 M133.05,155.6l61.45,74.7 M173,67c-27.833,16.4-45.483,37.684-52.95,63.85
			 M272.578,136.023c-20.847,29.784-17.196,68.246,8.162,85.996 M194.834,158.978l-45.201,78.624 M199.834,155.813L198,236.25"/>
		<text transform="matrix(1 0 0 1 268.7158 177.377)" fill="#FFFFFF" font-family="'OpenSans'" font-size="15">alternative</text>
		<rect x="89.351" y="70.077" fill="none" width="71.699" height="24.45"/>
		<text transform="matrix(1 0 0 1 91.3506 83.4775)" fill="#FFFFFF" font-family="'OpenSans'" font-size="15">related</text>
		<rect x="189.352" y="269.027" fill="none" width="71.698" height="24.449"/>
		<text transform="matrix(1 0 0 1 193.3506 285.4277)" fill="#FFFFFF" font-family="'OpenSans'" font-size="15">contains</text>
		<rect x="36.05" y="158.978" fill="none" width="76" height="24.45"/>
		<text transform="matrix(1 0 0 1 38.0498 172.377)" fill="#FFFFFF" font-family="'OpenSans'" font-size="15">contains</text>
	</g>
	<g>
		<rect x="109.05" y="129" fill="#E76182" width="29" height="29"/>
	</g>
	<g>
		<path fill="#269FCA" d="M85,213c0,3.866-1.366,7.167-4.1,9.9c-2.733,2.731-6.034,4.1-9.9,4.1s-7.167-1.367-9.9-4.1
			c-2.733-2.733-4.1-6.034-4.1-9.9c0-3.867,1.367-7.167,4.1-9.9c2.733-2.732,6.034-4.1,9.9-4.1c3.867,0,7.167,1.366,9.9,4.1
			C83.633,205.834,85,209.133,85,213z"/>
	</g>
	<g>
		<path fill="#269FCA" d="M212,241c0,3.866-1.366,7.167-4.1,9.9c-2.733,2.731-6.033,4.1-9.9,4.1c-3.866,0-7.166-1.367-9.898-4.1
			c-2.733-2.733-4.102-6.034-4.102-9.9c0-3.867,1.367-7.167,4.102-9.9c2.733-2.732,6.032-4.1,9.898-4.1c3.867,0,7.167,1.366,9.9,4.1
			C210.633,233.834,212,237.133,212,241z"/>
	</g>
	<g>
		<polygon fill="#9F44CA" points="268.716,236.25 283.716,203.75 298.716,236.25 		"/>
	</g>
	<g>
		<rect x="173.15" y="51" fill="#E76182" width="29" height="29"/>
	</g>
	<g>
		<path fill="#FFFFFF" d="M145.6,301.45c-0.966,1-2.15,1.5-3.55,1.5c-1.367,0-2.533-0.5-3.5-1.5c-1-0.968-1.5-2.134-1.5-3.5
			c0-1.4,0.5-2.584,1.5-3.55c0.967-0.967,2.133-1.45,3.5-1.45c1.4,0,2.583,0.483,3.55,1.45c0.967,0.966,1.45,2.148,1.45,3.55
			C147.05,299.316,146.567,300.482,145.6,301.45z"/>
	</g>
	<g>
		<path fill="#FFFFFF" d="M161.05,309.95c-1.367,0-2.533-0.5-3.5-1.5c-1-0.968-1.5-2.134-1.5-3.5c0-1.4,0.5-2.584,1.5-3.55
			c0.967-0.967,2.133-1.45,3.5-1.45c1.4,0,2.583,0.483,3.55,1.45c0.967,0.966,1.45,2.148,1.45,3.55c0,1.366-0.483,2.532-1.45,3.5
			C163.634,309.45,162.45,309.95,161.05,309.95z"/>
	</g>
	<g>
		<path fill="#FFFFFF" d="M177.55,314.45c-1-0.968-1.5-2.134-1.5-3.5c0-1.4,0.5-2.584,1.5-3.55c0.967-0.967,2.133-1.45,3.5-1.45
			c1.4,0,2.583,0.483,3.55,1.45c0.966,0.966,1.449,2.148,1.449,3.55c0,1.366-0.482,2.532-1.449,3.5c-0.967,1-2.15,1.5-3.55,1.5
			C179.684,315.95,178.517,315.45,177.55,314.45z"/>
	</g>
	<text transform="matrix(1 0 0 1 165.0503 44.4775)" fill="#E76182" font-family="'OpenSans'" font-size="15">Recipe</text>
	<text transform="matrix(1 0 0 1 240.0498 106.4268)" fill="#B876D8" font-family="'OpenSans'" font-size="15">Menu Item</text>
	<g>
		<polygon fill="#9F44CA" points="259.05,145.25 274.05,112.75 289.05,145.25 		"/>
	</g>
	<text transform="matrix(1 0 0 1 53.1001 266.4766)" fill="#269FCA" font-family="'OpenSans'" font-size="15">Ingredient</text>
	<g>
		<path fill="#269FCA" d="M162,241c0,3.866-1.366,7.167-4.1,9.9c-2.733,2.731-6.034,4.1-9.9,4.1s-7.167-1.367-9.9-4.1
			c-2.733-2.733-4.1-6.034-4.1-9.9c0-3.867,1.367-7.167,4.1-9.9c2.733-2.732,6.034-4.1,9.9-4.1c3.867,0,7.167,1.366,9.9,4.1
			C160.633,233.834,162,237.133,162,241z"/>
	</g>
	<g>
		<path fill="#269FCA" d="M117.9,243.9c-2.733,2.731-6.034,4.1-9.9,4.1s-7.167-1.367-9.9-4.1c-2.733-2.733-4.1-6.034-4.1-9.9
			c0-3.867,1.367-7.167,4.1-9.9c2.733-2.732,6.034-4.1,9.9-4.1c3.867,0,7.167,1.366,9.9,4.1c2.733,2.734,4.1,6.033,4.1,9.9
			C122,237.866,120.634,241.167,117.9,243.9z"/>
	</g>
	<text transform="matrix(1 0 0 1 134.1001 333.4277)" fill="#FFFFFF" font-family="'OpenSans'" font-size="15">Nutrient</text>
	<polygon fill="#EF3E2B" points="189.115,171.203 180.23,155.813 189.115,140.422 206.886,140.422 215.771,155.813 206.886,171.203 
			"/>
	<text transform="matrix(1 0 0 1 167.7163 133.4224)" fill="#EF3E2B" font-family="'OpenSans'" font-size="15">Products</text>
</g>
</svg>
